Coordinates
version=1
nRows=14
nColumns=24
inDegrees=yes

Units are S.I. units (second, meters, Newtons, ...)
Angles are in degrees.

endheader
time	pelvis_tilt	pelvis_list	pelvis_rotation	pelvis_tx	pelvis_ty	pelvis_tz	hip_flexion_r	hip_adduction_r	hip_rotation_r	knee_angle_r	ankle_angle_r	subtalar_angle_r	mtp_angle_r	hip_flexion_l	hip_adduction_l	hip_rotation_l	knee_angle_l	ankle_angle_l	subtalar_angle_l	mtp_angle_l	lumbar_extension	lumbar_bending	lumbar_rotation
      1.03733333	      0.57623053	     -4.58090936	     -4.54827681	      0.43183725	      1.01631789	      0.32078571	      9.49210372	      8.99596867	      3.90371753	    -14.56746207	     -3.72278928	    -20.70655852	     -2.94367555	     18.39903620	     -9.46156757	     -6.73231801	    -74.43703432	      4.70363130	    -14.37445604	    -19.77944986	    -11.19527536	      5.47838785	      6.08047064
      1.04150000	      0.66642619	     -4.44179456	     -4.67559459	      0.43712747	      1.01732793	      0.32127677	      8.90684215	      8.83526989	      4.01653103	    -14.25947566	     -3.67876253	    -20.61685451	     -2.92389894	     18.94187074	     -9.29192343	     -6.74667206	    -73.97654673	      4.87345846	    -14.16136385	    -19.75173347	    -11.25744361	      5.24785734	      6.14893588
      1.04566667	      0.96720364	     -4.28935315	     -4.89382612	      0.44243520	      1.01871098	      0.32198913	      8.07403540	      8.66080567	      4.26320581	    -13.93468958	     -3.49445688	    -20.43829340	     -2.87070946	     19.17183373	     -9.14658044	     -6.91651711	    -73.38879448	      5.02743926	    -13.98068138	    -19.68454057	    -11.57256523	      4.96771242	      6.33913867
      1.04983333	      1.16315822	     -4.13859229	     -5.07668453	      0.44772999	      1.01987335	      0.32262869	      7.36520716	      8.48626031	      4.46381370	    -13.61366218	     -3.41183670	    -20.35456760	     -2.81919524	     19.52649479	     -8.99691239	     -7.03688278	    -72.77531310	      5.16485335	    -13.80612565	    -19.61137002	    -11.76077951	      4.69632171	      6.48280780
      1.05400000	      1.34415140	     -3.98317169	     -5.26356017	      0.45300011	      1.02096507	      0.32327622	      6.68258098	      8.30372714	      4.66233001	    -13.30718176	     -3.30579300	    -20.24557873	     -2.77237188	     19.88265285	     -8.84944459	     -7.17148817	    -72.11232775	      5.29077998	    -13.65341240	    -19.54181268	    -11.93106805	      4.42516100	      6.61252823
      1.05816667	      1.53910300	     -3.83531186	     -5.45265348	      0.45825226	      1.02204392	      0.32393555	      5.98694914	      8.12515097	      4.87031263	    -13.00046290	     -3.20516275	    -20.14788851	     -2.72837244	     20.20407149	     -8.71772384	     -7.32043837	    -71.39666212	      5.41475954	    -13.50836112	    -19.47210936	    -12.12017770	      4.15656844	      6.74462641
      1.06233333	      1.74044606	     -3.68138433	     -5.65855634	      0.46349327	      1.02310268	      0.32465082	      5.28940808	      7.93945288	      5.09680250	    -12.69883088	     -3.11215597	    -20.05065302	     -2.68551674	     20.49311141	     -8.59384308	     -7.50337691	    -70.62161857	      5.52031011	    -13.39141279	    -19.39843566	    -12.31658689	      3.86898429	      6.88901530
      1.06650000	      1.87545496	     -3.52739473	     -5.86390109	      0.46873549	      1.02401506	      0.32534486	      4.67618661	      7.75494958	      5.31685073	    -12.42090612	     -3.00966915	    -19.97088798	     -2.64881434	     20.84062575	     -8.47654396	     -7.68545089	    -69.80494610	      5.62545997	    -13.29350131	    -19.33013973	    -12.43219354	      3.59895689	      7.01691705
      1.07066667	      2.05093281	     -3.38061775	     -6.07543087	      0.47394664	      1.02495058	      0.32607291	      4.02135643	      7.57242022	      5.54962842	    -12.14158361	     -2.91037156	    -19.88621962	     -2.61639235	     21.12058650	     -8.37556561	     -7.89033664	    -68.93353517	      5.73630545	    -13.19786920	    -19.26327618	    -12.59809677	      3.32337622	      7.15668584
      1.07483333	      2.20949118	     -3.22729815	     -6.29278747	      0.47913290	      1.02581917	      0.32682208	      3.39649020	      7.38204989	      5.78780051	    -11.87971215	     -2.79696130	    -19.80402483	     -2.58928349	     21.40027803	     -8.27700612	     -8.11235823	    -68.01250307	      5.83574774	    -13.13434790	    -19.20277412	    -12.74843050	      3.02733011	      7.29146886
      1.07900000	      2.35311439	     -3.08480078	     -6.51682844	      0.48431608	      1.02662651	      0.32757256	      2.79342519	      7.20124444	      6.02705566	    -11.62662240	     -2.69398724	    -19.73616197	     -2.56657807	     21.67349559	     -8.19893455	     -8.34959315	    -67.04400575	      5.94352054	    -13.07929442	    -19.14413048	    -12.87631820	      2.76041382	      7.43994121
      1.08316667	      2.48177616	     -2.94295972	     -6.74015965	      0.48948136	      1.02736593	      0.32833332	      2.21492975	      7.01981353	      6.25848271	    -11.38411966	     -2.58520943	    -19.66838253	     -2.54926984	     21.94502663	     -8.12827960	     -8.59550904	    -66.02997597	      6.04597657	    -13.04775264	    -19.09303628	    -12.98908147	      2.48975081	      7.57356467
      1.08733333	      2.49859204	     -2.83424973	     -6.88482662	      0.49465329	      1.02784118	      0.32886443	      1.76499092	      6.87128428	      6.38630646	    -11.14988249	     -2.55530052	    -19.60985909	     -2.54378349	     22.35883335	     -8.06061973	     -8.73344473	    -65.02243406	      6.22688610	    -13.01116812	    -19.07254501	    -12.97152573	      2.30074062	      7.62997017
      1.09150000	      2.69371332	     -2.68723450	     -7.19863143	      0.49977147	      1.02863855	      0.32987067	      1.13238911	      6.68158690	      6.72249739	    -10.94713968	     -2.34750810	    -19.51084582	     -2.53175821	     22.47577350	     -8.04117978	     -9.12388750	    -63.87477762	      6.26873396	    -13.05026687	    -19.03315536	    -13.16233041	      1.97841791	      7.83444862
